<?xml version="1.0" standalone="no"?><!DOCTYPE svg PUBLIC "-//W3C//DTD SVG 1.1//EN" "http://www.w3.org/Graphics/SVG/1.1/DTD/svg11.dtd"><svg t="1578146244759" class="icon" viewBox="0 0 1109 1024" version="1.1" xmlns="http://www.w3.org/2000/svg" p-id="7046" xmlns:xlink="http://www.w3.org/1999/xlink" width="216.6015625" height="200"><defs><style type="text/css"></style></defs><path d="M357.805808 316.32895l5.673871-60.801531c-28.79949-27.781504-41.71918-70.293176-29.891773-111.676069 17.017703-59.545016 78.735552-94.118742 137.859557-77.220955 59.117488 16.89518 93.250651 78.861986 76.232949 138.407001-2.434825 8.517976-5.874601 16.458528-9.999986 23.873793l0.612616 72.451671c27.640733-21.24606 49.103164-51.131315 59.445954-87.320003 25.526554-89.319479-25.671236-182.270339-114.349423-207.614412-88.6834-25.345376-181.266691 26.513258-206.794549 115.83404C254.452198 199.740218 290.094745 279.879574 357.805808 316.32895z" p-id="7047" fill="#e6e6e6"></path><path d="M792.514532 1024.000013c25.242405-13.033089 34.641505-72.312203 52.215777-108.04208 20.112068-40.909745 79.357292-250.823424 1.39077-392.379534-69.312989-125.83924-88.654725-12.082882-113.981853-43.177729-59.425099-109.746979-97.288706-13.300294-112.648435-10.9906-77.197494-92.104928-103.472222 7.537789-108.517836 11.390756-26.909504-20.939752-0.415797-142.920811-9.296129-225.296869-5.259377-48.819014-11.414218-96.043922-45.707705-97.880468-44.960834-2.400935-54.314314 33.609181-57.209253 89.6688-4.950462 95.845799 8.112606 412.820068 1.92909 435.236617-9.580279 34.726229-65.199335 35.930607-154.374132-12.314894-82.196183-38.757766-135.18881-0.694733-136.38667 35.237177-1.333418 39.8318 90.300968 43.880283 137.564979 71.12477 35.005165 20.172026 64.423789 49.606291 90.239707 89.397685 56.573174 87.185749 121.316306 104.397664 154.814695 158.025065L792.514532 1023.99871z" p-id="7048" fill="#e6e6e6"></path></svg>